<svg xmlns="http://www.w3.org/2000/svg" xmlns:xlink="http://www.w3.org/1999/xlink" xmlns:svgjs="http://svgjs.com/svgjs" width="512" height="512" x="0" y="0" viewBox="0 0 24 24" style="enable-background:new 0 0 512 512" xml:space="preserve"><g><g data-name="Layer 2"><path d="M18 22.752a2.739 2.739 0 0 1-1.65-.552l-4.2-3.15a.249.249 0 0 0-.3 0l-4.2 3.15a2.75 2.75 0 0 1-4.4-2.2V4.5A3.254 3.254 0 0 1 6.5 1.25h11a3.254 3.254 0 0 1 3.25 3.25V20A2.758 2.758 0 0 1 18 22.752zM17.25 21a1.25 1.25 0 0 0 2-1V4.5a1.752 1.752 0 0 0-1.75-1.75h-11A1.752 1.752 0 0 0 4.75 4.5V20a1.25 1.25 0 0 0 2 1l4.2-3.15a1.758 1.758 0 0 1 2.1 0z" fill="" data-original=""></path><path d="M15 7.75H9a.75.75 0 0 1 0-1.5h6a.75.75 0 0 1 0 1.5z" fill="" data-original=""></path></g></g></svg>