<svg xmlns="http://www.w3.org/2000/svg" xmlns:xlink="http://www.w3.org/1999/xlink" xmlns:svgjs="http://svgjs.com/svgjs" width="512" height="512" x="0" y="0" viewBox="0 0 24 24" style="enable-background:new 0 0 512 512" xml:space="preserve"><g><path d="M18 3.25H6C3.38 3.25 1.25 5.38 1.25 8v8c0 2.62 2.13 4.75 4.75 4.75h12c2.62 0 4.75-2.13 4.75-4.75V8c0-2.62-2.13-4.75-4.75-4.75zM6 4.75h12c1.79 0 3.25 1.46 3.25 3.25v.25H2.75V8c0-1.79 1.46-3.25 3.25-3.25zm12 14.5H6c-1.79 0-3.25-1.46-3.25-3.25V9.75h18.5V16c0 1.79-1.46 3.25-3.25 3.25z" fill="" data-original=""></path><path d="M18 16.75h-3c-.41 0-.75-.34-.75-.75s.34-.75.75-.75h3c.41 0 .75.34.75.75s-.34.75-.75.75z" fill="" data-original=""></path></g></svg>