<svg xmlns="http://www.w3.org/2000/svg" xmlns:xlink="http://www.w3.org/1999/xlink" xmlns:svgjs="http://svgjs.com/svgjs" width="512" height="512" x="0" y="0" viewBox="0 0 24 24" style="enable-background:new 0 0 512 512" xml:space="preserve" class=""><g><g fill="" fill-rule="evenodd" clip-rule="evenodd"><path d="M16.09 9.097a.75.75 0 0 1 0 1.06l-4.746 4.746a.75.75 0 0 1-1.06 0L7.91 12.53a.75.75 0 1 1 1.06-1.06l1.844 1.842 4.216-4.215a.75.75 0 0 1 1.06 0z" fill="" data-original=""></path><path d="M4.243 4.243C5.911 2.576 8.49 2 12 2s6.089.576 7.757 2.243C21.424 5.911 22 8.49 22 12s-.576 6.089-2.243 7.757C18.089 21.425 15.51 22 12 22s-6.09-.575-7.757-2.243S2 15.51 2 12s.575-6.089 2.243-7.757zm1.06 1.061C4.082 6.527 3.5 8.574 3.5 12s.58 5.473 1.804 6.696C6.527 19.92 8.573 20.5 12 20.5c3.427 0 5.473-.58 6.696-1.804C19.919 17.473 20.5 15.427 20.5 12s-.581-5.473-1.804-6.696C17.473 4.081 15.426 3.5 12 3.5c-3.427 0-5.473.581-6.696 1.804z" fill="" data-original=""></path></g></g></svg>