<svg xmlns="http://www.w3.org/2000/svg" xmlns:xlink="http://www.w3.org/1999/xlink" xmlns:svgjs="http://svgjs.com/svgjs" width="512" height="512" x="0" y="0" viewBox="0 0 24 24" style="enable-background:new 0 0 512 512" xml:space="preserve"><g><path d="M15 2H9C5.2 2 2 5.2 2 9v6c0 3.9 3.2 7 7 7h6c3.9 0 7-3.2 7-7V9c0-3.8-3.2-7-7-7zm5.5 13c0 3.1-2.5 5.5-5.5 5.5H9c-3 0-5.5-2.5-5.5-5.5V9C3.5 6 6 3.5 9 3.5h6c3 0 5.5 2.5 5.5 5.5z" fill="" data-original=""></path><path d="M11.3 9.6c0-1.2-1-2.1-2.2-2.1S7 8.4 7 9.6s1 2.1 2.2 2.1 2.1-1 2.1-2.1zm-2.8 0c0-.3.3-.6.7-.6s.7.3.7.6-.3.6-.7.6-.7-.3-.7-.6zM14.8 12.3c-1.2 0-2.2.9-2.2 2.1s1 2.1 2.2 2.1 2.2-.9 2.2-2.1-1-2.1-2.2-2.1zm0 2.7c-.4 0-.7-.3-.7-.6s.3-.6.7-.6.7.3.7.6-.3.6-.7.6zM16 7.2c-.4-.2-.8-.2-1.1.1l-6.8 8.4c-.3.3-.2.8.1 1.1.1.1.3.2.5.2s.4-.1.6-.3l6.8-8.4c.2-.3.2-.8-.1-1.1z" fill="" data-original=""></path></g></svg>