<svg id="visual" viewBox="0 0 900 600" width="900" height="600" xmlns="http://www.w3.org/2000/svg" xmlns:xlink="http://www.w3.org/1999/xlink" version="1.1"><rect x="0" y="0" width="900" height="600" fill="#001220"></rect><defs><linearGradient id="grad1_0" x1="33.3%" y1="0%" x2="100%" y2="100%"><stop offset="20%" stop-color="#001220" stop-opacity="1"></stop><stop offset="80%" stop-color="#001220" stop-opacity="1"></stop></linearGradient></defs><defs><linearGradient id="grad2_0" x1="0%" y1="0%" x2="66.7%" y2="100%"><stop offset="20%" stop-color="#001220" stop-opacity="1"></stop><stop offset="80%" stop-color="#001220" stop-opacity="1"></stop></linearGradient></defs><g transform="translate(900, 0)"><path d="M0 135.2C-23.7 131.7 -47.4 128.2 -67.6 117.1C-87.8 106 -104.5 87.3 -115.2 66.5C-125.9 45.7 -130.5 22.9 -135.2 0L0 0Z" fill="#ffef1e"></path></g><g transform="translate(0, 600)"><path d="M0 -135.2C21.8 -128.7 43.6 -122.2 64.5 -111.7C85.4 -101.3 105.5 -86.9 117.1 -67.6C128.7 -48.3 132 -24.2 135.2 0L0 0Z" fill="#ffef1e"></path></g></svg>