<svg id="visual" viewBox="0 0 900 600" width="900" height="600" xmlns="http://www.w3.org/2000/svg" xmlns:xlink="http://www.w3.org/1999/xlink" version="1.1"><rect x="0" y="0" width="900" height="600" fill="#000"></rect><defs><linearGradient id="grad1_0" x1="33.3%" y1="0%" x2="100%" y2="100%"><stop offset="20%" stop-color="#000000" stop-opacity="1"></stop><stop offset="80%" stop-color="#000000" stop-opacity="1"></stop></linearGradient></defs><defs><linearGradient id="grad2_0" x1="0%" y1="0%" x2="66.7%" y2="100%"><stop offset="20%" stop-color="#000000" stop-opacity="1"></stop><stop offset="80%" stop-color="#000000" stop-opacity="1"></stop></linearGradient></defs><g transform="translate(900, 0)"><path d="M0 162.2C-26.1 154.1 -52.1 146 -77 133.4C-101.9 120.7 -125.6 103.5 -139.4 80.5C-153.2 57.5 -157.1 28.8 -161 0L0 0Z" fill="#ffef1e"></path></g><g transform="translate(0, 600)"><path d="M0 -162.2C27 -155.6 53.9 -148.9 78.5 -136C103.1 -123 125.2 -103.7 138.6 -80C151.9 -56.3 156.5 -28.1 161 0L0 0Z" fill="#ffef1e"></path></g></svg>